<mxfile host="app.diagrams.net" modified="2023-10-31T04:42:46.260Z" agent="Mozilla/5.0 (Windows NT 10.0; Win64; x64) AppleWebKit/537.36 (KHTML, like Gecko) Chrome/118.0.0.0 Safari/537.36" etag="R2gYE1Px-xtbcH6qgLAf" version="22.0.8" type="google">
  <diagram id="C5RBs43oDa-KdzZeNtuy" name="Page-1">
    <mxGraphModel grid="1" page="1" gridSize="10" guides="1" tooltips="1" connect="1" arrows="1" fold="1" pageScale="1" pageWidth="1169" pageHeight="827" math="0" shadow="0">
      <root>
        <mxCell id="WIyWlLk6GJQsqaUBKTNV-0" />
        <mxCell id="WIyWlLk6GJQsqaUBKTNV-1" parent="WIyWlLk6GJQsqaUBKTNV-0" />
        <mxCell id="zkfFHV4jXpPFQw0GAbJ--0" value="動物" style="swimlane;fontStyle=3;align=center;verticalAlign=top;childLayout=stackLayout;horizontal=1;startSize=26;horizontalStack=0;resizeParent=1;resizeLast=0;collapsible=1;marginBottom=0;rounded=0;shadow=0;strokeWidth=1;" vertex="1" parent="WIyWlLk6GJQsqaUBKTNV-1">
          <mxGeometry x="465" y="40" width="160" height="242" as="geometry">
            <mxRectangle x="230" y="140" width="160" height="26" as="alternateBounds" />
          </mxGeometry>
        </mxCell>
        <mxCell id="zkfFHV4jXpPFQw0GAbJ--1" value="- 名稱1" style="text;align=left;verticalAlign=top;spacingLeft=4;spacingRight=4;overflow=hidden;rotatable=0;points=[[0,0.5],[1,0.5]];portConstraint=eastwest;" vertex="1" parent="zkfFHV4jXpPFQw0GAbJ--0">
          <mxGeometry y="26" width="160" height="26" as="geometry" />
        </mxCell>
        <mxCell id="zkfFHV4jXpPFQw0GAbJ--2" value="# 名稱2" style="text;align=left;verticalAlign=top;spacingLeft=4;spacingRight=4;overflow=hidden;rotatable=0;points=[[0,0.5],[1,0.5]];portConstraint=eastwest;rounded=0;shadow=0;html=0;" vertex="1" parent="zkfFHV4jXpPFQw0GAbJ--0">
          <mxGeometry y="52" width="160" height="26" as="geometry" />
        </mxCell>
        <mxCell id="zkfFHV4jXpPFQw0GAbJ--3" value="+ 名稱3" style="text;align=left;verticalAlign=top;spacingLeft=4;spacingRight=4;overflow=hidden;rotatable=0;points=[[0,0.5],[1,0.5]];portConstraint=eastwest;rounded=0;shadow=0;html=0;" vertex="1" parent="zkfFHV4jXpPFQw0GAbJ--0">
          <mxGeometry y="78" width="160" height="26" as="geometry" />
        </mxCell>
        <mxCell id="nUXvT5BipVLvOn3IU3J6-0" value="+ 有生命的" style="text;align=left;verticalAlign=top;spacingLeft=4;spacingRight=4;overflow=hidden;rotatable=0;points=[[0,0.5],[1,0.5]];portConstraint=eastwest;rounded=0;shadow=0;html=0;" vertex="1" parent="zkfFHV4jXpPFQw0GAbJ--0">
          <mxGeometry y="104" width="160" height="26" as="geometry" />
        </mxCell>
        <mxCell id="zkfFHV4jXpPFQw0GAbJ--4" value="" style="line;html=1;strokeWidth=1;align=left;verticalAlign=middle;spacingTop=-1;spacingLeft=3;spacingRight=3;rotatable=0;labelPosition=right;points=[];portConstraint=eastwest;" vertex="1" parent="zkfFHV4jXpPFQw0GAbJ--0">
          <mxGeometry y="130" width="160" height="8" as="geometry" />
        </mxCell>
        <mxCell id="fcuT04EmYSAubzJicyfa-9" value="+ 新陳代謝(氧氣，水)" style="text;align=left;verticalAlign=top;spacingLeft=4;spacingRight=4;overflow=hidden;rotatable=0;points=[[0,0.5],[1,0.5]];portConstraint=eastwest;" vertex="1" parent="zkfFHV4jXpPFQw0GAbJ--0">
          <mxGeometry y="138" width="160" height="26" as="geometry" />
        </mxCell>
        <mxCell id="nUXvT5BipVLvOn3IU3J6-1" value="- 繁殖1()" style="text;align=left;verticalAlign=top;spacingLeft=4;spacingRight=4;overflow=hidden;rotatable=0;points=[[0,0.5],[1,0.5]];portConstraint=eastwest;" vertex="1" parent="zkfFHV4jXpPFQw0GAbJ--0">
          <mxGeometry y="164" width="160" height="26" as="geometry" />
        </mxCell>
        <mxCell id="nUXvT5BipVLvOn3IU3J6-3" value="# 繁殖2()" style="text;align=left;verticalAlign=top;spacingLeft=4;spacingRight=4;overflow=hidden;rotatable=0;points=[[0,0.5],[1,0.5]];portConstraint=eastwest;" vertex="1" parent="zkfFHV4jXpPFQw0GAbJ--0">
          <mxGeometry y="190" width="160" height="26" as="geometry" />
        </mxCell>
        <mxCell id="nUXvT5BipVLvOn3IU3J6-2" value="+ 繁殖3()" style="text;align=left;verticalAlign=top;spacingLeft=4;spacingRight=4;overflow=hidden;rotatable=0;points=[[0,0.5],[1,0.5]];portConstraint=eastwest;" vertex="1" parent="zkfFHV4jXpPFQw0GAbJ--0">
          <mxGeometry y="216" width="160" height="26" as="geometry" />
        </mxCell>
        <mxCell id="zkfFHV4jXpPFQw0GAbJ--12" value="" style="endArrow=block;endSize=10;endFill=0;shadow=0;strokeWidth=1;rounded=0;edgeStyle=elbowEdgeStyle;elbow=horizontal;" edge="1" parent="WIyWlLk6GJQsqaUBKTNV-1" source="zkfFHV4jXpPFQw0GAbJ--13" target="zkfFHV4jXpPFQw0GAbJ--0">
          <mxGeometry width="160" relative="1" as="geometry">
            <mxPoint x="445" y="158" as="sourcePoint" />
            <mxPoint x="445" y="158" as="targetPoint" />
          </mxGeometry>
        </mxCell>
        <mxCell id="3ZgRoRINGn4TiMhAiDnb-1" value="繼承關係" style="edgeLabel;html=1;align=center;verticalAlign=middle;resizable=0;points=[];fontSize=15;" connectable="0" vertex="1" parent="zkfFHV4jXpPFQw0GAbJ--12">
          <mxGeometry x="-0.4429" y="-1" relative="1" as="geometry">
            <mxPoint x="39" y="-15" as="offset" />
          </mxGeometry>
        </mxCell>
        <mxCell id="zkfFHV4jXpPFQw0GAbJ--13" value="鳥" style="swimlane;fontStyle=3;align=center;verticalAlign=top;childLayout=stackLayout;horizontal=1;startSize=26;horizontalStack=0;resizeParent=1;resizeLast=0;collapsible=1;marginBottom=0;rounded=0;shadow=0;strokeWidth=1;" vertex="1" parent="WIyWlLk6GJQsqaUBKTNV-1">
          <mxGeometry x="465" y="355" width="160" height="120" as="geometry">
            <mxRectangle x="340" y="380" width="170" height="26" as="alternateBounds" />
          </mxGeometry>
        </mxCell>
        <mxCell id="zkfFHV4jXpPFQw0GAbJ--14" value="+ 羽毛" style="text;align=left;verticalAlign=top;spacingLeft=4;spacingRight=4;overflow=hidden;rotatable=0;points=[[0,0.5],[1,0.5]];portConstraint=eastwest;" vertex="1" parent="zkfFHV4jXpPFQw0GAbJ--13">
          <mxGeometry y="26" width="160" height="26" as="geometry" />
        </mxCell>
        <mxCell id="nUXvT5BipVLvOn3IU3J6-14" value="+ 有角質沒有牙齒" style="text;align=left;verticalAlign=top;spacingLeft=4;spacingRight=4;overflow=hidden;rotatable=0;points=[[0,0.5],[1,0.5]];portConstraint=eastwest;" vertex="1" parent="zkfFHV4jXpPFQw0GAbJ--13">
          <mxGeometry y="52" width="160" height="26" as="geometry" />
        </mxCell>
        <mxCell id="zkfFHV4jXpPFQw0GAbJ--15" value="" style="line;html=1;strokeWidth=1;align=left;verticalAlign=middle;spacingTop=-1;spacingLeft=3;spacingRight=3;rotatable=0;labelPosition=right;points=[];portConstraint=eastwest;" vertex="1" parent="zkfFHV4jXpPFQw0GAbJ--13">
          <mxGeometry y="78" width="160" height="8" as="geometry" />
        </mxCell>
        <mxCell id="nUXvT5BipVLvOn3IU3J6-17" value="+ 下蛋()" style="text;align=left;verticalAlign=top;spacingLeft=4;spacingRight=4;overflow=hidden;rotatable=0;points=[[0,0.5],[1,0.5]];portConstraint=eastwest;" vertex="1" parent="zkfFHV4jXpPFQw0GAbJ--13">
          <mxGeometry y="86" width="160" height="26" as="geometry" />
        </mxCell>
        <mxCell id="nUXvT5BipVLvOn3IU3J6-10" value="&lt;p style=&quot;margin:0px;margin-top:4px;text-align:center;&quot;&gt;&lt;b&gt;氧氣&lt;/b&gt;&lt;/p&gt;&lt;hr size=&quot;1&quot;&gt;&lt;div style=&quot;height:2px;&quot;&gt;&lt;/div&gt;" style="verticalAlign=top;align=left;overflow=fill;fontSize=12;fontFamily=Helvetica;html=1;whiteSpace=wrap;" vertex="1" parent="WIyWlLk6GJQsqaUBKTNV-1">
          <mxGeometry x="805" y="15" width="140" height="60" as="geometry" />
        </mxCell>
        <mxCell id="nUXvT5BipVLvOn3IU3J6-11" value="&lt;p style=&quot;margin:0px;margin-top:4px;text-align:center;&quot;&gt;&lt;b&gt;水&lt;/b&gt;&lt;/p&gt;&lt;hr size=&quot;1&quot;&gt;&lt;div style=&quot;height:2px;&quot;&gt;&lt;/div&gt;" style="verticalAlign=top;align=left;overflow=fill;fontSize=12;fontFamily=Helvetica;html=1;whiteSpace=wrap;" vertex="1" parent="WIyWlLk6GJQsqaUBKTNV-1">
          <mxGeometry x="805" y="145" width="140" height="60" as="geometry" />
        </mxCell>
        <mxCell id="nUXvT5BipVLvOn3IU3J6-12" value="&lt;font style=&quot;font-size: 17px;&quot;&gt;依賴關係&lt;/font&gt;" style="html=1;verticalAlign=bottom;endArrow=open;rounded=0;entryX=0;entryY=0.5;entryDx=0;entryDy=0;exitX=1;exitY=0.5;exitDx=0;exitDy=0;edgeStyle=orthogonalEdgeStyle;endFill=0;dashed=1;" edge="1" parent="WIyWlLk6GJQsqaUBKTNV-1" target="nUXvT5BipVLvOn3IU3J6-10">
          <mxGeometry x="-0.629" y="12" width="80" relative="1" as="geometry">
            <mxPoint x="625" y="111" as="sourcePoint" />
            <mxPoint x="755" y="25" as="targetPoint" />
            <mxPoint as="offset" />
            <Array as="points">
              <mxPoint x="625" y="112" />
              <mxPoint x="725" y="112" />
              <mxPoint x="725" y="45" />
            </Array>
          </mxGeometry>
        </mxCell>
        <mxCell id="nUXvT5BipVLvOn3IU3J6-13" value="" style="html=1;verticalAlign=bottom;endArrow=open;rounded=0;entryX=0;entryY=0.5;entryDx=0;entryDy=0;exitX=1;exitY=0.5;exitDx=0;exitDy=0;edgeStyle=orthogonalEdgeStyle;dashed=1;endFill=0;" edge="1" parent="WIyWlLk6GJQsqaUBKTNV-1" target="nUXvT5BipVLvOn3IU3J6-11">
          <mxGeometry x="0.7638" y="20" width="80" relative="1" as="geometry">
            <mxPoint x="625" y="111" as="sourcePoint" />
            <mxPoint x="805" y="45" as="targetPoint" />
            <mxPoint as="offset" />
            <Array as="points">
              <mxPoint x="625" y="112" />
              <mxPoint x="725" y="112" />
              <mxPoint x="725" y="175" />
            </Array>
          </mxGeometry>
        </mxCell>
        <mxCell id="nUXvT5BipVLvOn3IU3J6-31" value="企鵝" style="swimlane;fontStyle=1;align=center;verticalAlign=top;childLayout=stackLayout;horizontal=1;startSize=26;horizontalStack=0;resizeParent=1;resizeParentMax=0;resizeLast=0;collapsible=1;marginBottom=0;whiteSpace=wrap;html=1;" vertex="1" parent="WIyWlLk6GJQsqaUBKTNV-1">
          <mxGeometry x="245" y="555" width="160" height="86" as="geometry" />
        </mxCell>
        <mxCell id="nUXvT5BipVLvOn3IU3J6-32" value="- attribute" style="text;strokeColor=none;fillColor=none;align=left;verticalAlign=top;spacingLeft=4;spacingRight=4;overflow=hidden;rotatable=0;points=[[0,0.5],[1,0.5]];portConstraint=eastwest;whiteSpace=wrap;html=1;" vertex="1" parent="nUXvT5BipVLvOn3IU3J6-31">
          <mxGeometry y="26" width="160" height="26" as="geometry" />
        </mxCell>
        <mxCell id="nUXvT5BipVLvOn3IU3J6-33" value="" style="line;strokeWidth=1;fillColor=none;align=left;verticalAlign=middle;spacingTop=-1;spacingLeft=3;spacingRight=3;rotatable=0;labelPosition=right;points=[];portConstraint=eastwest;strokeColor=inherit;" vertex="1" parent="nUXvT5BipVLvOn3IU3J6-31">
          <mxGeometry y="52" width="160" height="8" as="geometry" />
        </mxCell>
        <mxCell id="nUXvT5BipVLvOn3IU3J6-34" value="+ 下蛋()" style="text;strokeColor=none;fillColor=none;align=left;verticalAlign=top;spacingLeft=4;spacingRight=4;overflow=hidden;rotatable=0;points=[[0,0.5],[1,0.5]];portConstraint=eastwest;whiteSpace=wrap;html=1;" vertex="1" parent="nUXvT5BipVLvOn3IU3J6-31">
          <mxGeometry y="60" width="160" height="26" as="geometry" />
        </mxCell>
        <mxCell id="nUXvT5BipVLvOn3IU3J6-35" value="鴨" style="swimlane;fontStyle=1;align=center;verticalAlign=top;childLayout=stackLayout;horizontal=1;startSize=26;horizontalStack=0;resizeParent=1;resizeParentMax=0;resizeLast=0;collapsible=1;marginBottom=0;whiteSpace=wrap;html=1;" vertex="1" parent="WIyWlLk6GJQsqaUBKTNV-1">
          <mxGeometry x="465" y="555" width="160" height="86" as="geometry" />
        </mxCell>
        <mxCell id="nUXvT5BipVLvOn3IU3J6-36" value="- attribute" style="text;strokeColor=none;fillColor=none;align=left;verticalAlign=top;spacingLeft=4;spacingRight=4;overflow=hidden;rotatable=0;points=[[0,0.5],[1,0.5]];portConstraint=eastwest;whiteSpace=wrap;html=1;" vertex="1" parent="nUXvT5BipVLvOn3IU3J6-35">
          <mxGeometry y="26" width="160" height="26" as="geometry" />
        </mxCell>
        <mxCell id="nUXvT5BipVLvOn3IU3J6-37" value="" style="line;strokeWidth=1;fillColor=none;align=left;verticalAlign=middle;spacingTop=-1;spacingLeft=3;spacingRight=3;rotatable=0;labelPosition=right;points=[];portConstraint=eastwest;strokeColor=inherit;" vertex="1" parent="nUXvT5BipVLvOn3IU3J6-35">
          <mxGeometry y="52" width="160" height="8" as="geometry" />
        </mxCell>
        <mxCell id="nUXvT5BipVLvOn3IU3J6-38" value="+ 下蛋()" style="text;strokeColor=none;fillColor=none;align=left;verticalAlign=top;spacingLeft=4;spacingRight=4;overflow=hidden;rotatable=0;points=[[0,0.5],[1,0.5]];portConstraint=eastwest;whiteSpace=wrap;html=1;" vertex="1" parent="nUXvT5BipVLvOn3IU3J6-35">
          <mxGeometry y="60" width="160" height="26" as="geometry" />
        </mxCell>
        <mxCell id="nUXvT5BipVLvOn3IU3J6-39" value="大雁" style="swimlane;fontStyle=1;align=center;verticalAlign=top;childLayout=stackLayout;horizontal=1;startSize=26;horizontalStack=0;resizeParent=1;resizeParentMax=0;resizeLast=0;collapsible=1;marginBottom=0;whiteSpace=wrap;html=1;" vertex="1" parent="WIyWlLk6GJQsqaUBKTNV-1">
          <mxGeometry x="685" y="555" width="160" height="112" as="geometry" />
        </mxCell>
        <mxCell id="nUXvT5BipVLvOn3IU3J6-40" value="- attribute" style="text;strokeColor=none;fillColor=none;align=left;verticalAlign=top;spacingLeft=4;spacingRight=4;overflow=hidden;rotatable=0;points=[[0,0.5],[1,0.5]];portConstraint=eastwest;whiteSpace=wrap;html=1;" vertex="1" parent="nUXvT5BipVLvOn3IU3J6-39">
          <mxGeometry y="26" width="160" height="26" as="geometry" />
        </mxCell>
        <mxCell id="nUXvT5BipVLvOn3IU3J6-41" value="" style="line;strokeWidth=1;fillColor=none;align=left;verticalAlign=middle;spacingTop=-1;spacingLeft=3;spacingRight=3;rotatable=0;labelPosition=right;points=[];portConstraint=eastwest;strokeColor=inherit;" vertex="1" parent="nUXvT5BipVLvOn3IU3J6-39">
          <mxGeometry y="52" width="160" height="8" as="geometry" />
        </mxCell>
        <mxCell id="nUXvT5BipVLvOn3IU3J6-42" value="+ 下蛋()" style="text;strokeColor=none;fillColor=none;align=left;verticalAlign=top;spacingLeft=4;spacingRight=4;overflow=hidden;rotatable=0;points=[[0,0.5],[1,0.5]];portConstraint=eastwest;whiteSpace=wrap;html=1;" vertex="1" parent="nUXvT5BipVLvOn3IU3J6-39">
          <mxGeometry y="60" width="160" height="26" as="geometry" />
        </mxCell>
        <mxCell id="nUXvT5BipVLvOn3IU3J6-43" value="+ 飛()" style="text;strokeColor=none;fillColor=none;align=left;verticalAlign=top;spacingLeft=4;spacingRight=4;overflow=hidden;rotatable=0;points=[[0,0.5],[1,0.5]];portConstraint=eastwest;whiteSpace=wrap;html=1;" vertex="1" parent="nUXvT5BipVLvOn3IU3J6-39">
          <mxGeometry y="86" width="160" height="26" as="geometry" />
        </mxCell>
        <mxCell id="nUXvT5BipVLvOn3IU3J6-44" value="" style="endArrow=block;endSize=10;endFill=0;shadow=0;strokeWidth=1;rounded=0;edgeStyle=elbowEdgeStyle;elbow=vertical;entryX=0.5;entryY=1;entryDx=0;entryDy=0;exitX=0.5;exitY=0;exitDx=0;exitDy=0;" edge="1" parent="WIyWlLk6GJQsqaUBKTNV-1" source="nUXvT5BipVLvOn3IU3J6-35" target="zkfFHV4jXpPFQw0GAbJ--13">
          <mxGeometry width="160" relative="1" as="geometry">
            <mxPoint x="545" y="525" as="sourcePoint" />
            <mxPoint x="544.5" y="515" as="targetPoint" />
          </mxGeometry>
        </mxCell>
        <mxCell id="nUXvT5BipVLvOn3IU3J6-47" value="" style="endArrow=block;endSize=10;endFill=0;shadow=0;strokeWidth=1;rounded=0;edgeStyle=elbowEdgeStyle;elbow=vertical;entryX=0.5;entryY=1;entryDx=0;entryDy=0;exitX=0.5;exitY=0;exitDx=0;exitDy=0;" edge="1" parent="WIyWlLk6GJQsqaUBKTNV-1" source="nUXvT5BipVLvOn3IU3J6-39">
          <mxGeometry width="160" relative="1" as="geometry">
            <mxPoint x="544.5" y="555" as="sourcePoint" />
            <mxPoint x="544.5" y="475" as="targetPoint" />
          </mxGeometry>
        </mxCell>
        <mxCell id="nUXvT5BipVLvOn3IU3J6-48" value="" style="endArrow=block;endSize=10;endFill=0;shadow=0;strokeWidth=1;rounded=0;edgeStyle=elbowEdgeStyle;elbow=vertical;entryX=0.5;entryY=1;entryDx=0;entryDy=0;" edge="1" parent="WIyWlLk6GJQsqaUBKTNV-1" source="nUXvT5BipVLvOn3IU3J6-31">
          <mxGeometry width="160" relative="1" as="geometry">
            <mxPoint x="544.5" y="555" as="sourcePoint" />
            <mxPoint x="544.5" y="475" as="targetPoint" />
          </mxGeometry>
        </mxCell>
        <mxCell id="nUXvT5BipVLvOn3IU3J6-49" value="唐老鴨" style="swimlane;fontStyle=1;align=center;verticalAlign=top;childLayout=stackLayout;horizontal=1;startSize=26;horizontalStack=0;resizeParent=1;resizeParentMax=0;resizeLast=0;collapsible=1;marginBottom=0;whiteSpace=wrap;html=1;" vertex="1" parent="WIyWlLk6GJQsqaUBKTNV-1">
          <mxGeometry x="465" y="735" width="160" height="86" as="geometry" />
        </mxCell>
        <mxCell id="fcuT04EmYSAubzJicyfa-3" value="- attribute" style="text;strokeColor=none;fillColor=none;align=left;verticalAlign=top;spacingLeft=4;spacingRight=4;overflow=hidden;rotatable=0;points=[[0,0.5],[1,0.5]];portConstraint=eastwest;whiteSpace=wrap;html=1;" vertex="1" parent="nUXvT5BipVLvOn3IU3J6-49">
          <mxGeometry y="26" width="160" height="26" as="geometry" />
        </mxCell>
        <mxCell id="nUXvT5BipVLvOn3IU3J6-51" value="" style="line;strokeWidth=1;fillColor=none;align=left;verticalAlign=middle;spacingTop=-1;spacingLeft=3;spacingRight=3;rotatable=0;labelPosition=right;points=[];portConstraint=eastwest;strokeColor=inherit;" vertex="1" parent="nUXvT5BipVLvOn3IU3J6-49">
          <mxGeometry y="52" width="160" height="8" as="geometry" />
        </mxCell>
        <mxCell id="nUXvT5BipVLvOn3IU3J6-52" value="+ 講話()" style="text;strokeColor=none;fillColor=none;align=left;verticalAlign=top;spacingLeft=4;spacingRight=4;overflow=hidden;rotatable=0;points=[[0,0.5],[1,0.5]];portConstraint=eastwest;whiteSpace=wrap;html=1;" vertex="1" parent="nUXvT5BipVLvOn3IU3J6-49">
          <mxGeometry y="60" width="160" height="26" as="geometry" />
        </mxCell>
        <mxCell id="nUXvT5BipVLvOn3IU3J6-53" value="" style="endArrow=block;endSize=10;endFill=0;shadow=0;strokeWidth=1;rounded=0;edgeStyle=elbowEdgeStyle;elbow=vertical;entryX=0.5;entryY=1;entryDx=0;entryDy=0;exitX=0.5;exitY=0;exitDx=0;exitDy=0;" edge="1" parent="WIyWlLk6GJQsqaUBKTNV-1" source="nUXvT5BipVLvOn3IU3J6-49">
          <mxGeometry width="160" relative="1" as="geometry">
            <mxPoint x="544.5" y="721" as="sourcePoint" />
            <mxPoint x="544.5" y="641" as="targetPoint" />
            <Array as="points">
              <mxPoint x="544.5" y="691" />
            </Array>
          </mxGeometry>
        </mxCell>
        <mxCell id="nUXvT5BipVLvOn3IU3J6-54" value="&lt;p style=&quot;margin:0px;margin-top:4px;text-align:center;&quot;&gt;&lt;b&gt;氣候&lt;/b&gt;&lt;/p&gt;&lt;hr size=&quot;1&quot;&gt;&lt;div style=&quot;height:2px;&quot;&gt;&lt;/div&gt;" style="verticalAlign=top;align=left;overflow=fill;fontSize=12;fontFamily=Helvetica;html=1;whiteSpace=wrap;" vertex="1" parent="WIyWlLk6GJQsqaUBKTNV-1">
          <mxGeometry x="15" y="607" width="140" height="60" as="geometry" />
        </mxCell>
        <mxCell id="nUXvT5BipVLvOn3IU3J6-62" value="" style="endArrow=none;startArrow=none;endFill=0;startFill=0;html=1;rounded=0;exitX=1;exitY=0.5;exitDx=0;exitDy=0;edgeStyle=orthogonalEdgeStyle;" edge="1" parent="WIyWlLk6GJQsqaUBKTNV-1" source="nUXvT5BipVLvOn3IU3J6-54" target="nUXvT5BipVLvOn3IU3J6-31">
          <mxGeometry width="160" relative="1" as="geometry">
            <mxPoint x="275" y="715" as="sourcePoint" />
            <mxPoint x="325" y="645" as="targetPoint" />
            <Array as="points">
              <mxPoint x="155" y="645" />
              <mxPoint x="205" y="645" />
              <mxPoint x="205" y="598" />
            </Array>
          </mxGeometry>
        </mxCell>
        <mxCell id="3ZgRoRINGn4TiMhAiDnb-6" value="關聯關係" style="edgeLabel;html=1;align=center;verticalAlign=middle;resizable=0;points=[];fontSize=15;" connectable="0" vertex="1" parent="nUXvT5BipVLvOn3IU3J6-62">
          <mxGeometry x="0.2736" relative="1" as="geometry">
            <mxPoint x="-15" y="-30" as="offset" />
          </mxGeometry>
        </mxCell>
        <mxCell id="ZH2TVla2HUYHPI6OT6Yt-8" value="雁群" style="swimlane;fontStyle=1;align=center;verticalAlign=top;childLayout=stackLayout;horizontal=1;startSize=26;horizontalStack=0;resizeParent=1;resizeParentMax=0;resizeLast=0;collapsible=1;marginBottom=0;whiteSpace=wrap;html=1;" vertex="1" parent="WIyWlLk6GJQsqaUBKTNV-1">
          <mxGeometry x="994" y="555" width="160" height="112" as="geometry" />
        </mxCell>
        <mxCell id="ZH2TVla2HUYHPI6OT6Yt-9" value="- attribute" style="text;strokeColor=none;fillColor=none;align=left;verticalAlign=top;spacingLeft=4;spacingRight=4;overflow=hidden;rotatable=0;points=[[0,0.5],[1,0.5]];portConstraint=eastwest;whiteSpace=wrap;html=1;" vertex="1" parent="ZH2TVla2HUYHPI6OT6Yt-8">
          <mxGeometry y="26" width="160" height="26" as="geometry" />
        </mxCell>
        <mxCell id="ZH2TVla2HUYHPI6OT6Yt-10" value="" style="line;strokeWidth=1;fillColor=none;align=left;verticalAlign=middle;spacingTop=-1;spacingLeft=3;spacingRight=3;rotatable=0;labelPosition=right;points=[];portConstraint=eastwest;strokeColor=inherit;" vertex="1" parent="ZH2TVla2HUYHPI6OT6Yt-8">
          <mxGeometry y="52" width="160" height="8" as="geometry" />
        </mxCell>
        <mxCell id="ZH2TVla2HUYHPI6OT6Yt-11" value="+ v形飛行()" style="text;strokeColor=none;fillColor=none;align=left;verticalAlign=top;spacingLeft=4;spacingRight=4;overflow=hidden;rotatable=0;points=[[0,0.5],[1,0.5]];portConstraint=eastwest;whiteSpace=wrap;html=1;" vertex="1" parent="ZH2TVla2HUYHPI6OT6Yt-8">
          <mxGeometry y="60" width="160" height="26" as="geometry" />
        </mxCell>
        <mxCell id="ZH2TVla2HUYHPI6OT6Yt-12" value="+ 一形飛行()" style="text;strokeColor=none;fillColor=none;align=left;verticalAlign=top;spacingLeft=4;spacingRight=4;overflow=hidden;rotatable=0;points=[[0,0.5],[1,0.5]];portConstraint=eastwest;whiteSpace=wrap;html=1;" vertex="1" parent="ZH2TVla2HUYHPI6OT6Yt-8">
          <mxGeometry y="86" width="160" height="26" as="geometry" />
        </mxCell>
        <mxCell id="ZH2TVla2HUYHPI6OT6Yt-13" value="" style="endArrow=diamondThin;endFill=0;endSize=24;html=1;rounded=0;exitX=1;exitY=0;exitDx=0;exitDy=0;" edge="1" parent="WIyWlLk6GJQsqaUBKTNV-1">
          <mxGeometry width="160" relative="1" as="geometry">
            <mxPoint x="844.5199999999998" y="610.5699999999999" as="sourcePoint" />
            <mxPoint x="995" y="611" as="targetPoint" />
          </mxGeometry>
        </mxCell>
        <mxCell id="3ZgRoRINGn4TiMhAiDnb-7" value="聚合關係" style="edgeLabel;html=1;align=center;verticalAlign=middle;resizable=0;points=[];fontSize=15;" connectable="0" vertex="1" parent="ZH2TVla2HUYHPI6OT6Yt-13">
          <mxGeometry x="0.0077" y="-2" relative="1" as="geometry">
            <mxPoint x="30" y="-32" as="offset" />
          </mxGeometry>
        </mxCell>
        <mxCell id="ZH2TVla2HUYHPI6OT6Yt-15" value="" style="endArrow=block;dashed=1;endFill=0;endSize=12;html=1;rounded=0;exitX=0.75;exitY=1;exitDx=0;exitDy=0;entryX=0.5;entryY=0;entryDx=0;entryDy=0;edgeStyle=orthogonalEdgeStyle;" edge="1" parent="WIyWlLk6GJQsqaUBKTNV-1" source="nUXvT5BipVLvOn3IU3J6-39" target="fcuT04EmYSAubzJicyfa-2">
          <mxGeometry width="160" relative="1" as="geometry">
            <mxPoint x="725" y="705" as="sourcePoint" />
            <mxPoint x="885" y="705" as="targetPoint" />
            <Array as="points">
              <mxPoint x="740" y="667" />
              <mxPoint x="740" y="708" />
              <mxPoint x="770" y="708" />
            </Array>
          </mxGeometry>
        </mxCell>
        <mxCell id="3ZgRoRINGn4TiMhAiDnb-8" value="實現接口" style="edgeLabel;html=1;align=center;verticalAlign=middle;resizable=0;points=[];fontSize=15;" connectable="0" vertex="1" parent="ZH2TVla2HUYHPI6OT6Yt-15">
          <mxGeometry x="0.1268" relative="1" as="geometry">
            <mxPoint x="50" y="-11" as="offset" />
          </mxGeometry>
        </mxCell>
        <mxCell id="fcuT04EmYSAubzJicyfa-2" value="&lt;p style=&quot;margin:0px;margin-top:4px;text-align:center;&quot;&gt;&lt;i&gt;&amp;lt;&amp;lt;Interface&amp;gt;&amp;gt;&lt;/i&gt;&lt;br&gt;&lt;b&gt;飛翔&lt;/b&gt;&lt;/p&gt;&lt;hr size=&quot;1&quot;&gt;&lt;p style=&quot;margin:0px;margin-left:4px;&quot;&gt;+ 飛()&lt;/p&gt;" style="verticalAlign=top;align=left;overflow=fill;fontSize=12;fontFamily=Helvetica;html=1;whiteSpace=wrap;" vertex="1" parent="WIyWlLk6GJQsqaUBKTNV-1">
          <mxGeometry x="690" y="748" width="160" height="60" as="geometry" />
        </mxCell>
        <mxCell id="fcuT04EmYSAubzJicyfa-5" value="類&lt;br&gt;第一行：類名稱&lt;br&gt;第二行：類屬性&lt;br&gt;第三行：類方法&lt;br&gt;&lt;br&gt;類名為斜體則抽象類&lt;br&gt;類方法為斜體則為抽象方法&lt;br&gt;&lt;br&gt;屬性/方法說明：&lt;br&gt;&#39;-&#39;表示私有(private)&lt;br&gt;&#39;#&#39;表示保護(protected)&lt;br&gt;&lt;div style=&quot;&quot;&gt;&lt;span style=&quot;background-color: initial;&quot;&gt;&#39;+&#39;表示公開(public)&lt;/span&gt;&lt;/div&gt;" style="shape=note;size=20;whiteSpace=wrap;html=1;align=left;" vertex="1" parent="WIyWlLk6GJQsqaUBKTNV-1">
          <mxGeometry x="60" y="50" width="200" height="180" as="geometry" />
        </mxCell>
        <mxCell id="fcuT04EmYSAubzJicyfa-8" value="" style="endArrow=none;dashed=1;html=1;rounded=0;entryX=-0.002;entryY=0.821;entryDx=0;entryDy=0;entryPerimeter=0;" edge="1" parent="WIyWlLk6GJQsqaUBKTNV-1" source="fcuT04EmYSAubzJicyfa-5" target="zkfFHV4jXpPFQw0GAbJ--3">
          <mxGeometry width="50" height="50" relative="1" as="geometry">
            <mxPoint x="290.0000000000001" y="195.3" as="sourcePoint" />
            <mxPoint x="460" y="140" as="targetPoint" />
            <Array as="points" />
          </mxGeometry>
        </mxCell>
        <mxCell id="3ZgRoRINGn4TiMhAiDnb-0" value="添加註解" style="edgeLabel;html=1;align=center;verticalAlign=middle;resizable=0;points=[];fontSize=18;" connectable="0" vertex="1" parent="fcuT04EmYSAubzJicyfa-8">
          <mxGeometry x="-0.0163" y="3" relative="1" as="geometry">
            <mxPoint y="-19" as="offset" />
          </mxGeometry>
        </mxCell>
        <mxCell id="fcuT04EmYSAubzJicyfa-13" value="接口&lt;br&gt;矩形表示法，頂標有&amp;lt;&amp;lt;interface&amp;gt;&amp;gt;&lt;br&gt;第一行：接口名稱&lt;br&gt;第二行：接口名稱" style="shape=note;size=20;whiteSpace=wrap;html=1;align=left;" vertex="1" parent="WIyWlLk6GJQsqaUBKTNV-1">
          <mxGeometry x="964" y="743" width="190" height="70" as="geometry" />
        </mxCell>
        <mxCell id="fcuT04EmYSAubzJicyfa-14" value="" style="endArrow=none;dashed=1;html=1;rounded=0;exitX=1;exitY=0.75;exitDx=0;exitDy=0;entryX=0.007;entryY=0.7;entryDx=0;entryDy=0;entryPerimeter=0;" edge="1" parent="WIyWlLk6GJQsqaUBKTNV-1" source="fcuT04EmYSAubzJicyfa-2" target="fcuT04EmYSAubzJicyfa-13">
          <mxGeometry width="50" height="50" relative="1" as="geometry">
            <mxPoint x="970" y="870" as="sourcePoint" />
            <mxPoint x="1020" y="820" as="targetPoint" />
          </mxGeometry>
        </mxCell>
        <mxCell id="3ZgRoRINGn4TiMhAiDnb-3" value="&lt;p style=&quot;margin:0px;margin-top:4px;text-align:center;&quot;&gt;&lt;b&gt;翅膀&lt;/b&gt;&lt;/p&gt;&lt;hr size=&quot;1&quot;&gt;&lt;div style=&quot;height:2px;&quot;&gt;&lt;/div&gt;" style="verticalAlign=top;align=left;overflow=fill;fontSize=12;fontFamily=Helvetica;html=1;whiteSpace=wrap;" vertex="1" parent="WIyWlLk6GJQsqaUBKTNV-1">
          <mxGeometry x="105" y="390" width="140" height="60" as="geometry" />
        </mxCell>
        <mxCell id="3ZgRoRINGn4TiMhAiDnb-4" value="" style="endArrow=diamondThin;endFill=1;endSize=24;html=1;rounded=0;exitX=1;exitY=0.75;exitDx=0;exitDy=0;entryX=0.002;entryY=1.038;entryDx=0;entryDy=0;entryPerimeter=0;" edge="1" parent="WIyWlLk6GJQsqaUBKTNV-1">
          <mxGeometry width="160" relative="1" as="geometry">
            <mxPoint x="244.68" y="420.51" as="sourcePoint" />
            <mxPoint x="464.99999999999994" y="419.49800000000005" as="targetPoint" />
            <Array as="points" />
          </mxGeometry>
        </mxCell>
        <mxCell id="3ZgRoRINGn4TiMhAiDnb-5" value="組合關係" style="edgeLabel;html=1;align=center;verticalAlign=middle;resizable=0;points=[];fontSize=15;" connectable="0" vertex="1" parent="3ZgRoRINGn4TiMhAiDnb-4">
          <mxGeometry x="0.2527" y="1" relative="1" as="geometry">
            <mxPoint x="-23" y="-25" as="offset" />
          </mxGeometry>
        </mxCell>
      </root>
    </mxGraphModel>
  </diagram>
</mxfile>
